<?xml version="1.0" standalone="no"?>
<!DOCTYPE svg PUBLIC "-//W3C//DTD SVG 20010904//EN"
 "http://www.w3.org/TR/2001/REC-SVG-20010904/DTD/svg10.dtd">
<svg version="1.0" xmlns="http://www.w3.org/2000/svg"
 width="500.000000pt" height="500.000000pt" viewBox="0 0 500.000000 500.000000"
 preserveAspectRatio="xMidYMid meet">
<metadata>
Created by potrace 1.14, written by Peter Selinger 2001-2017
</metadata>
<g transform="translate(0.000000,500.000000) scale(0.100000,-0.100000)"
fill="#000000" stroke="none">
<path d="M2245 4396 c-41 -18 -92 -77 -105 -123 -7 -25 -10 -119 -8 -268 4
-266 9 -287 87 -337 l46 -29 236 3 236 3 36 28 c73 55 77 75 77 348 0 227 -1
246 -21 287 -13 26 -38 54 -62 70 l-40 27 -226 2 c-172 2 -233 0 -256 -11z
m474 -80 c47 -25 51 -48 51 -299 0 -199 -2 -236 -16 -256 -31 -44 -70 -51
-265 -51 -287 0 -282 -6 -277 328 l3 234 33 29 32 29 206 0 c158 0 211 -3 233
-14z"/>
<path d="M3614 4337 c-12 -7 -175 -171 -364 -366 l-343 -353 -378 1 c-256 2
-392 -2 -420 -9 l-42 -12 -221 229 c-121 125 -276 285 -346 356 l-126 127 -49
0 c-65 -1 -83 -12 -165 -103 -75 -83 -90 -121 -71 -179 8 -25 123 -138 452
-446 l440 -412 -1 -822 c0 -452 -2 -823 -3 -824 -1 -2 -88 -10 -192 -19 -945
-78 -1565 -282 -1565 -514 0 -209 517 -401 1315 -490 356 -40 490 -46 990 -46
501 0 631 6 990 46 622 69 1074 197 1243 353 54 50 72 83 72 136 0 54 -19 88
-79 142 -204 184 -848 336 -1618 384 l-113 7 0 701 c0 385 -3 764 -6 841 l-7
140 421 393 c232 217 435 409 452 428 25 29 30 43 30 83 0 42 -6 56 -38 98
-22 26 -62 69 -90 96 -46 43 -56 47 -99 47 -26 -1 -57 -6 -69 -13z m125 -102
c27 -25 61 -64 76 -86 l28 -40 -19 -26 c-11 -14 -214 -208 -453 -432 l-433
-406 1 -1094 c2 -1014 1 -1095 -15 -1112 -14 -16 -32 -19 -114 -19 -63 0 -102
4 -114 13 -16 12 -20 68 -42 617 -16 374 -29 609 -36 617 -7 9 -44 13 -124 13
-109 0 -115 -1 -124 -22 -5 -13 -19 -286 -31 -608 -17 -452 -25 -590 -36 -607
-13 -22 -20 -23 -118 -23 -100 0 -105 1 -121 25 -14 22 -16 122 -13 1094 l3
1070 -424 396 c-472 440 -470 438 -470 465 0 23 112 152 141 162 11 4 28 4 38
-1 9 -5 170 -168 356 -361 187 -194 348 -356 357 -361 12 -7 27 -3 50 11 29
17 50 20 168 20 l135 0 -3 -54 c-3 -47 -1 -56 19 -70 14 -10 44 -16 75 -16 45
0 56 4 73 26 23 29 27 64 10 95 -10 20 -7 20 138 15 81 -2 162 -6 179 -8 29
-3 55 22 389 367 327 337 373 382 398 384 4 1 30 -19 56 -44z m-1185 -2067 c3
-18 8 -116 11 -218 3 -102 8 -238 12 -302 l6 -118 -87 0 -88 0 6 63 c3 34 8
141 11 237 3 96 8 219 12 273 l6 97 53 0 c52 0 53 -1 58 -32z m36 -818 l0 -50
-96 0 -97 0 7 38 c3 20 6 43 6 50 0 9 25 12 90 12 l90 0 0 -50z m-610 -20 c0
-57 21 -49 -197 -75 -336 -39 -607 -122 -679 -207 -114 -137 195 -271 766
-332 749 -81 1643 -13 1977 149 266 130 92 282 -425 369 -81 14 -204 30 -274
37 l-128 12 0 50 0 50 98 -7 c235 -16 572 -77 757 -136 190 -61 315 -137 345
-210 66 -159 -290 -321 -876 -399 -289 -38 -430 -46 -829 -45 -480 0 -730 21
-1070 89 -307 62 -541 159 -595 247 -67 110 27 211 280 302 177 64 618 147
818 155 32 1 32 1 32 -49z m614 -141 c3 -17 6 -59 6 -93 0 -72 22 -116 71
-141 25 -13 55 -16 149 -13 110 3 120 5 146 28 39 36 54 80 54 159 l0 71 28
-5 c15 -3 72 -12 127 -21 180 -29 336 -82 388 -131 51 -50 30 -96 -66 -144
-256 -130 -996 -179 -1542 -104 -233 33 -443 103 -482 161 -37 57 22 113 172
163 72 24 289 71 327 71 4 0 8 -38 8 -84 0 -69 3 -88 21 -110 36 -46 68 -56
186 -56 89 0 114 3 140 20 51 30 62 56 69 163 l7 97 92 0 93 0 6 -31z"/>
<path d="M2417 3338 c-3 -24 -22 -189 -43 -368 l-38 -325 81 -102 c92 -117 73
-119 170 17 l61 85 -44 365 c-24 201 -43 366 -44 368 0 1 -31 2 -69 2 l-68 0
-6 -42z"/>
</g>
</svg>
